<svg xmlns="http://www.w3.org/2000/svg" xmlns:xlink="http://www.w3.org/1999/xlink"><symbol fill="none" viewBox="0 0 13 16" id="icn-apple" xmlns="http://www.w3.org/2000/svg"><path d="M6.556 3.954c.68 0 1.53-.46 2.036-1.071.46-.555.794-1.329.794-2.103 0-.105-.01-.21-.03-.296-.754.029-1.662.507-2.206 1.147-.43.487-.823 1.252-.823 2.035 0 .115.02.23.029.268.048.01.124.019.2.019zM4.168 15.516c.927 0 1.338-.621 2.494-.621 1.176 0 1.434.602 2.466.602 1.013 0 1.692-.937 2.332-1.854.716-1.051 1.013-2.083 1.032-2.131-.067-.02-2.007-.812-2.007-3.039 0-1.93 1.53-2.8 1.615-2.867-1.013-1.453-2.552-1.491-2.972-1.491-1.137 0-2.064.688-2.647.688-.63 0-1.463-.65-2.447-.65C2.161 4.153.26 5.701.26 8.626c0 1.816.706 3.736 1.576 4.978.746 1.052 1.396 1.912 2.332 1.912z" fill="#fff"/></symbol><symbol viewBox="0 0 11 18" id="icn-chevron" xmlns="http://www.w3.org/2000/svg"><path d="M1.053 15.471l6.474-6.474-6.47-6.47a.657.657 0 01-.001-.93L2.445.206a.657.657 0 01.93.002l6.47 6.47a3.273 3.273 0 01.008 4.634l-6.48 6.48a.657.657 0 01-.93-.002L1.05 16.397a.651.651 0 01.002-.926z" fill="#FFF" fill-rule="evenodd"/></symbol><symbol viewBox="0 0 15 15" id="icn-close" xmlns="http://www.w3.org/2000/svg"><path d="M13.878.304a.98.98 0 00-1.418 0L7.09 5.673 1.723.303a.98.98 0 00-1.418 0 .98.98 0 000 1.42L5.673 7.09l-5.37 5.37a.98.98 0 000 1.418c.203.203.406.304.71.304.304 0 .506-.101.71-.304L7.09 8.509l5.369 5.369c.202.203.506.304.709.304.202 0 .506-.101.709-.304a.98.98 0 000-1.418L8.509 7.09l5.369-5.368a.98.98 0 000-1.418z" fill-rule="evenodd"/></symbol><symbol fill="none" viewBox="0 0 24 17" id="icn-email" xmlns="http://www.w3.org/2000/svg"><path d="M1.846.5c-.363 0-.696.11-.98.295l10.394 9.73c.455.427 1.045.427 1.5 0L23.135.796A1.795 1.795 0 0022.154.5H1.846zM.116 1.754c-.07.201-.116.41-.116.637V15.03c0 .384.108.738.298 1.036l7.346-7.251-7.529-7.06zm16.26 7.052l7.326 7.26c.19-.298.298-.652.298-1.036V2.391c0-.226-.046-.436-.115-.636l-7.51 7.05zm-.895.845l-1.875 1.758c-.893.838-2.3.837-3.192 0L8.539 9.662l-7.27 7.165c.182.06.375.095.577.095h20.308c.202 0 .395-.034.577-.095l-7.25-7.175z" fill="#37003C"/></symbol><symbol viewBox="0 0 16 16" fill="none" id="icn-error" xmlns="http://www.w3.org/2000/svg"><g clip-path="url(#eclip0_1269_50161)" fill="#fff"><path d="M8 11a.667.667 0 100-1.333A.667.667 0 008 11zM7.333 5h1.333v4H7.333V5z"/></g><defs><clipPath id="eclip0_1269_50161"><rect fill="#fff" transform="translate(4 4)"/></clipPath></defs></symbol><symbol viewBox="0 0 12 12" id="icn-external" xmlns="http://www.w3.org/2000/svg"><path d="M9.674.91c.264 0 .511.065.747.183a1 1 0 01.168.104c.086.065.172.13.245.208.153.167.254.34.338.548.071.175.1.371.1.56v7.142c0 .109.005.221-.007.33a1.746 1.746 0 01-.184.63c-.05.096-.116.18-.183.265a1.032 1.032 0 01-.134.146 1.633 1.633 0 01-1.049.426c-.01 0-.02.003-.029.003h-7.36a1.68 1.68 0 01-.894-.271 1.868 1.868 0 01-.248-.204 1.484 1.484 0 01-.297-.426 1.672 1.672 0 01-.159-.641v-7.44l.004-.075a1.74 1.74 0 01.172-.627 1.74 1.74 0 01.31-.416 1.61 1.61 0 011.07-.446zm.005 1.078H2.485c-.079 0-.158 0-.237.005-.043.009-.085.02-.126.034a1.19 1.19 0 00-.115.067c-.033.03-.065.062-.095.095a1.297 1.297 0 00-.066.114 1.155 1.155 0 00-.035.128c-.002.024-.005.047-.005.07l.001 7.313.004.118c.01.043.02.085.035.126.02.04.042.078.067.115.03.034.061.065.095.095.036.024.074.046.113.066.042.014.085.026.129.035l.07.005h7.364l.064-.005a1.03 1.03 0 00.129-.035 1 1 0 00.114-.067c.034-.03.066-.061.096-.095a1.15 1.15 0 00.066-.113c.014-.042.026-.085.035-.129.001-.023.004-.046.004-.07V2.548l-.005-.118a1.133 1.133 0 00-.034-.127 1 1 0 00-.067-.114 1.065 1.065 0 00-.095-.095 1.082 1.082 0 00-.113-.067 1.188 1.188 0 00-.13-.035c-.022-.001-.046-.004-.07-.004zM8.22 3.418l.086.005a.594.594 0 01.297.153c.046.042.082.1.109.161.031.068.05.143.05.22v2.49a.57.57 0 01-.158.383.555.555 0 01-.382.157.546.546 0 01-.382-.157.563.563 0 01-.158-.383V5.26l-.736.736L5.66 7.283 4.602 8.341l-.444.444a.561.561 0 01-.382.158.546.546 0 01-.382-.158.547.547 0 01-.158-.382c0-.14.06-.284.158-.382l.008-.008c.177-.181.36-.36.539-.539l2.976-2.976H5.733a.554.554 0 01-.382-.158.541.541 0 01.382-.922H8.22z"/></symbol><symbol fill="none" viewBox="0 0 17 16" id="icn-facebook" xmlns="http://www.w3.org/2000/svg"><path d="M16.625 8a8 8 0 10-9.25 7.903v-5.59H5.344V8h2.031V6.237c0-2.005 1.194-3.112 3.022-3.112.875 0 1.79.156 1.79.156V5.25H11.18c-.994 0-1.304.617-1.304 1.25V8h2.219l-.355 2.313H9.875v5.59A8.002 8.002 0 0016.625 8z" fill="#fff"/></symbol><symbol viewBox="0 0 453 104" id="icn-fantasy-title" xmlns="http://www.w3.org/2000/svg"><g fill="#FFF" fill-rule="nonzero"><path d="M16.485 7.956a33.147 33.147 0 017.407 4.731c-.236-1.075-1.053-6.318-1.526-9.578 2.455 1.72 8.168 5.665 10.025 6.95C33.15 7.704 35.8 0 35.8 0s4.776 7.741 5.593 9.032C42.394 7.987 48.112 1.626 49.586 0c.25 3.66.59 8.898.671 9.685a32.198 32.198 0 016.147-6.292c-1.59 3.136-2.347 7.462-2.686 10.937a42.09 42.09 0 00-32.07 3.914c-1.113-3.355-2.85-7.53-5.163-10.288zm43.922 43.598v-5.39a18.105 18.105 0 01-4.978-2.769c-5.16.783-11.414 5.978-11.414 5.978s2.115 4.008 4.424 8.33c4.058.56 10.037-4.562 11.968-6.15zm5.193 9.771a10.293 10.293 0 00-2.18-4.3l-4.024.098s-5.433 4.67-8.744 4.778c0 0 1.823 3.398 2.739 5.161 1.827-.395 5.034-1.836 6.328-3.337.544 1.958.776 3.99.688 6.02 1.814-1.074 4.316-3.921 5.193-8.42zm1.65-17.71a26.073 26.073 0 01-3.753 2.657v5.41c1.458 1.622 2.894 2.968 3.964 5.411 2.05-3.66 1.668-9.053-.21-13.479zm.43-4.826l.318-2.46c.104-1.355-.24-3.6-2.149-5.931-2.352-2.64-8.262-6.881-11.083-7.913 0 0-.236 2.722-1.203 4.034-5.619-4.06-8.379-5.075-8.379-5.075-6.173.86-10.14 3.264-12.294 5.135l1.878 1.595c-3.718 1.149-6.134 4.349-6.134 4.349l3.323.524s-.34 3.871 4.51 6.305c4.148 2.078 10.123-.503 15.746 1.755-3.671-4.27-6.203-6.18-6.203-6.18a14.868 14.868 0 00-2.507-.297c-1.29 0-3.215.262-5.33-.56a20.202 20.202 0 01-3.104-1.668 12.512 12.512 0 016.384-3.256 21.7 21.7 0 016.13 2.968 5.506 5.506 0 013.68-1.72s-1.861 1.72-1.29 3.845a69.921 69.921 0 015.645 5.874c3.009-1.642 9.492-1.264 10.829.284-1.694-2.193-4.132-4.025-6.019-5.59-.232-.822-2.291-3.69-2.64-3.953a11.056 11.056 0 013.706 2.15 4.789 4.789 0 012.726-1.767 4.405 4.405 0 011.513 3.088c-.327.4-.725.737-1.174.993l3.164 3.44.318-2.46m2.838 4.47c4.827 8.923 6.018 19.615 2.648 30.268-.202-.228-2.756-3.084-3.813-4.253-.671 10.416-3.732 18.493-12.678 25.34 0 0-.86-3.269-1.35-5.32-14.745 10.816-27.422 5.87-30.986 4.09 2.76-12.657.624-19.93-1.22-25.47-3.925 6.452-7.95 11.462-11.96 14.843-2.738-6.409-2.953-18.317-.735-25.354-.735.198-5.069 1.57-7.472 2.297.942-6.425 5.21-15.061 9.716-19.362-.787-.142-3.1-.469-4.927-.774 1.127-2.31 4.377-6.568 9.402-10.567-.142 2.817.898 6.176 4.08 7.788-2.017-3.54-2.262-7.909-.16-10.175 2.103-2.267 5.67-1.497 7.919.275a7.449 7.449 0 00-2.678-3.591 38.502 38.502 0 0122.41-3.269 30.53 30.53 0 013.52 3.79 14.543 14.543 0 00-.296-3.162 48.07 48.07 0 0110.98 4.142c-6.767-6.752-20.48-8.787-31.92-5.505a44.305 44.305 0 00-7.622 2.985c-2.523.03-4.148 1.574-5.077 2.946-7.325 4.855-12.694 11.246-15.278 16.605.572.125 2.309.34 3.912.62C4.023 44.624-.255 53.462.012 61.397c.744-.224 4.729-1.45 6.702-2.086-1.05 7.002-.744 18.765 3.8 25.491 5.717-4.051 9.028-8.31 11.783-12.15.71 3.44 1.402 9.604-1.036 19.784 1.978 1.527 16.31 9.057 32.521-.783L55.141 97l1.75-1.14c9.887-6.412 13.657-15.074 14.976-22.123.456.503 2.249 2.464 2.894 3.122 2.484-6.756 7.437-23.005-3.908-36.062l.026-.03zM248.305 53.462v29.335h-12.532V54.819c0-8.132-3.848-12.293-10.313-12.293-7.328 0-12.438 5.226-12.438 16.166v24.105h-12.527V31.513h11.18l1.253 6.191c3.666-4.645 8.678-6.968 15.038-6.968 12.433-.022 20.339 8.789 20.339 22.726zm25.226-36.784v14.835h18.218v11.108h-18.197v21.975c0 4.723 2.22 7.162 6.94 7.162a18.995 18.995 0 008.58-2.323l4.144 10.554a29.609 29.609 0 01-14.17 3.58c-11.18 0-18.026-6.487-18.026-17.131V42.62h-8.192V31.513h8.197V16.678h12.506zm75.298 14.835v51.284h-11.18l-1.254-5.909c-3.848 4.165-9.637 6.681-16.29 6.681-14.362 0-24.58-10.94-24.58-26.427 0-15.586 10.218-26.428 24.58-26.428 6.653 0 12.438 2.516 16.29 6.681l1.253-5.882h11.18zM336.3 57.649v-.97c0-9.194-6.84-14.324-14.17-14.324-8.195 0-14.074 6.388-14.074 14.808s5.879 14.81 14.075 14.81c7.324-.022 14.17-5.149 14.17-14.346v.022zm24.444 10.648a21.19 21.19 0 0013.015 4.646c4.725 0 7.52-1.55 7.52-4.358 0-8.128-24.87-4.547-24.87-22.362 0-9.193 7.614-15.487 18.992-15.487a29.883 29.883 0 0117.927 5.81l-6.174 9.368c-3.664-2.903-7.807-4.551-11.971-4.551-4.165 0-6.264 1.648-6.264 3.971 0 7.549 24.871 3.968 24.871 22.263 0 9.485-8.098 15.972-20.343 15.972-6.841 0-13.396-1.837-18.313-5.032l5.61-10.24zM453 31.513l-21.314 54.186c-5.396 13.74-13.01 18.295-24.29 18.295a17.593 17.593 0 01-5.302-.678l1.638-12.486c1.08.206 2.18.304 3.28.292 5.985 0 9.637-1.743 12.048-7.651l-22.926-51.958h13.977l15.713 36.496 13.494-36.496H453zm-349.99-3.315v15.488h29.4v12.198h-29.4v26.913H90V16h45.976v12.198H103.01zm88.579 3.315v51.284h-11.181l-1.253-5.909c-3.848 4.165-9.641 6.681-16.294 6.681-14.362 0-24.58-10.94-24.58-26.427 0-15.586 10.218-26.428 24.58-26.428 6.666 0 12.438 2.516 16.294 6.681l1.253-5.882h11.18zm-12.532 26.136v-.97c0-9.194-6.841-14.324-14.17-14.324-8.192 0-14.075 6.388-14.075 14.808s5.883 14.81 14.075 14.81c7.325-.022 14.17-5.149 14.17-14.346v.022z"/></g></symbol><symbol fill="none" viewBox="0 0 17 16" id="icn-google" xmlns="http://www.w3.org/2000/svg"><path fill-rule="evenodd" clip-rule="evenodd" d="M16.055 8.182c0-.568-.05-1.113-.146-1.637H8.375V9.64h4.306a3.68 3.68 0 01-1.597 2.415v2.007h2.585c1.513-1.393 2.386-3.444 2.386-5.88z" fill="#4285F4"/><path fill-rule="evenodd" clip-rule="evenodd" d="M8.375 16c2.16 0 3.97-.716 5.294-1.938l-2.585-2.007c-.717.48-1.633.763-2.71.763-2.083 0-3.847-1.407-4.476-3.298H1.226v2.073A7.997 7.997 0 008.375 16z" fill="#34A853"/><path fill-rule="evenodd" clip-rule="evenodd" d="M3.899 9.52c-.16-.48-.251-.993-.251-1.52s.09-1.04.25-1.52V4.407H1.227A7.997 7.997 0 00.375 8c0 1.29.31 2.513.85 3.593L3.9 9.52z" fill="#FBBC05"/><path fill-rule="evenodd" clip-rule="evenodd" d="M8.375 3.182c1.174 0 2.229.403 3.058 1.196l2.294-2.294C12.342.793 10.531 0 8.375 0a7.997 7.997 0 00-7.15 4.407L3.899 6.48c.63-1.89 2.393-3.298 4.477-3.298z" fill="#EA4335"/></symbol><symbol viewBox="0 0 24 26" id="icn-pin" xmlns="http://www.w3.org/2000/svg"><path d="M8.502 1c-1.018 0-1.854.86-1.854 1.908 0 .81.503 1.497 1.2 1.772l-1.423 5.675C5.012 11.102 4 12.194 4 13.54c0 .301.237.545.53.545h6.62v10.36c-.004.288.25.554.53.554s.534-.266.53-.554v-10.36h6.62c.293 0 .53-.244.53-.545 0-1.347-1.012-2.44-2.425-3.186L15.512 4.68a1.904 1.904 0 001.2-1.772c0-1.047-.836-1.908-1.854-1.908H8.502zm-.105.96h6.566c.464 0 .82.375.82.864s-.356.864-.82.864a.537.537 0 00-.433.223.6.6 0 00-.097.497l1.676 6.804a.57.57 0 00.299.378c1.082.536 1.745 1.208 1.992 1.89H4.96c.247-.682.91-1.354 1.992-1.89a.57.57 0 00.3-.378l1.675-6.804a.6.6 0 00-.097-.497.537.537 0 00-.433-.223c-.464 0-.82-.375-.82-.864s.356-.864.82-.864z" stroke="#FF2882" fill="#FF2882" fill-rule="nonzero"/></symbol><symbol viewBox="0 0 42 48" id="icn-play" xmlns="http://www.w3.org/2000/svg"><path d="M.09 4.253C.09 1.24 3.407-.625 6.02.916l33.518 19.747c2.555 1.506 2.555 5.168 0 6.672L6.02 47.085c-2.614 1.54-5.93-.326-5.93-3.338V4.253z" fill="#FFF" fill-rule="evenodd" opacity=".8"/></symbol><symbol viewBox="0 0 13 24" id="icn-radio" xmlns="http://www.w3.org/2000/svg"><path d="M.91 10.893v2.505c.116 2.855 2.505 5.126 5.36 5.068 2.796.058 5.184-2.213 5.3-5.068v-2.505h.7l-.001 2.447c-.058 2.913-2.272 5.417-5.126 5.766v3.204c1.631.174 2.855.873 2.855 1.69H2.483c.058-.817 1.223-1.516 2.913-1.69v-3.204C2.54 18.756.27 16.251.21 13.34l.058-2.447h.64zM6.21 0c2.563 0 4.544 2.04 4.544 4.485V6H6.97v.758h3.786v.582H6.97v.757h3.786v.524H6.97v.758h3.786v.582H6.97v.758h3.786v2.097a4.486 4.486 0 01-4.485 4.485c-2.505 0-4.544-2.04-4.544-4.485v-2.04H5.57v-.757H1.726v-.582H5.57v-.758H1.726v-.582H5.57V7.34H1.726v-.582H5.57V6H1.726V4.485C1.726 2.038 3.765 0 6.21 0z" fill="#54585C" fill-rule="nonzero"/></symbol><symbol viewBox="0 0 8 8" fill="none" id="icn-tick" xmlns="http://www.w3.org/2000/svg"><path fill-rule="evenodd" clip-rule="evenodd" d="M3.466 7.444a.659.659 0 01-.397-.133L.261 5.186a.654.654 0 01-.127-.919.66.66 0 01.921-.127l2.252 1.704L6.793.628a.66.66 0 011.195.234.657.657 0 01-.1.495L4.014 7.152a.658.658 0 01-.548.292z" fill="#37003C"/></symbol><symbol fill="none" viewBox="0 0 17 14" id="icn-twitter" xmlns="http://www.w3.org/2000/svg"><path d="M15.194 3.642c.01.14.01.28.01.421 0 4.306-3.277 9.27-9.27 9.27v-.002a9.224 9.224 0 01-4.995-1.46 6.543 6.543 0 004.822-1.35 3.262 3.262 0 01-3.043-2.263c.488.094.991.074 1.47-.057a3.258 3.258 0 01-2.613-3.193v-.041c.453.252.96.392 1.479.407a3.262 3.262 0 01-1.009-4.35A9.247 9.247 0 008.76 4.428a3.26 3.26 0 015.552-2.972 6.538 6.538 0 002.07-.79 3.27 3.27 0 01-1.433 1.801 6.48 6.48 0 001.871-.513 6.62 6.62 0 01-1.626 1.688z" fill="#fff"/></symbol><symbol id="partners-hublot" viewBox="0 0 216 36" xml:space="preserve" xmlns="http://www.w3.org/2000/svg"><style>.ost0{fill:#181716}</style><path class="ost0" d="M27.5 1.4v12.4H10.7V1.4H4.2v33.3h6.5V20.6h16.8v14.1H34V1.4h-6.5zM67.6 1.4v17.4c0 5-.5 10.4-8.8 10.4s-8.9-5.2-8.9-10.4V1.4h-6.5v17.8c0 7.9 2.2 16.4 15.3 16.4C71.8 35.6 74 27 74 19.2V1.4h-6.4zM121.8 1.4v33.3h22.5V28h-15.9V1.4h-6.6zM164.1.4c-10 0-17.8 7.7-17.8 17.5s7.8 17.5 17.8 17.5 17.8-7.7 17.8-17.5S174.1.4 164.1.4zm0 28.6c-6.3 0-11.3-4.9-11.3-11.1 0-6.2 5-11.1 11.3-11.1s11.3 4.9 11.3 11.1c0 6.2-5 11.1-11.3 11.1zM184.6 1.4v6.8h10.5v26.5h6.5V8.2h10.2V1.4h-27.2zM108.2 17.2c2-1.6 3.2-3.9 3.2-6.6 0-2.8-1.1-9.2-11.5-9.2H82.8v33.3H101c7.3 0 11.5-3.7 11.5-10.1 0-3.2-1.5-5.7-4.3-7.4zm-8.6-9.7c3.6 0 4.7 1.3 4.7 3.5s-1 3.8-4.6 3.8H89.3V7.5h10.3zm1 21.1H89.3v-8.4h11.3c3.4 0 4.8 1.3 4.8 4.3.1 2.3-.8 4.1-4.8 4.1z"/></symbol><symbol id="partners-hublot-official-timekeeper" viewBox="0 0 216 62" xml:space="preserve" xmlns="http://www.w3.org/2000/svg"><style>.pst0{fill:#181716}</style><path class="pst0" d="M3.6 55.6C3.6 52.5 6 50 9.3 50s5.7 2.5 5.7 5.5S12.6 61 9.3 61s-5.7-2.4-5.7-5.4zm8.9 0c0-1.9-1.3-3.4-3.2-3.4s-3.2 1.5-3.2 3.3c0 1.8 1.3 3.4 3.2 3.4 1.9 0 3.2-1.5 3.2-3.3zM18.6 50.2h8.2v2.1H21v2.3h5.1v2.1H21v4.1h-2.4V50.2zM30.2 50.2h8.2v2.1h-5.8v2.3h5.1v2.1h-5.1v4.1h-2.4V50.2zM41.9 50.2h2.4v10.7h-2.4V50.2zM48 55.6c0-3.1 2.3-5.6 5.6-5.6 2 0 3.2.7 4.2 1.7l-1.5 1.7c-.8-.7-1.7-1.2-2.7-1.2-1.8 0-3.1 1.5-3.1 3.3 0 1.8 1.3 3.4 3.1 3.4 1.2 0 2-.5 2.8-1.3l1.5 1.5c-1.1 1.2-2.3 1.9-4.4 1.9-3.2.1-5.5-2.3-5.5-5.4zM61.4 50.2h2.4v10.7h-2.4V50.2zM71.6 50.1h2.2l4.6 10.8h-2.5l-1-2.4h-4.5l-1 2.4H67l4.6-10.8zm2.5 6.3L72.6 53l-1.4 3.5h2.9zM81.5 50.2h2.4v8.6h5.3v2.1h-7.7V50.2zM101.1 52.4h-3.3v-2.2h8.9v2.2h-3.3v8.5H101v-8.5zM110.2 50.2h2.4v10.7h-2.4V50.2zM116.8 50.2h2.5l2.8 4.5 2.8-4.5h2.5v10.7h-2.3v-7l-3 4.6h-.1l-3-4.5v6.9h-2.3V50.2zM131.6 50.2h8.1v2.1H134v2.2h5v2.1h-5v2.2h5.8v2.1h-8.2V50.2zM143.3 50.2h2.4v4.7l4.3-4.7h2.8l-4.4 4.5 4.6 6.2h-2.8l-3.3-4.6-1.2 1.3v3.3h-2.4V50.2zM156 50.2h8.1v2.1h-5.7v2.2h5v2.1h-5v2.2h5.8v2.1H156V50.2zM167.8 50.2h8.1v2.1h-5.7v2.2h5v2.1h-5v2.2h5.8v2.1h-8.2V50.2zM179.6 50.2h4.4c2.6 0 4.1 1.5 4.1 3.7 0 2.5-1.9 3.8-4.3 3.8H182v3.2h-2.4V50.2zm4.2 5.4c1.2 0 1.9-.7 1.9-1.6 0-1.1-.7-1.6-1.9-1.6H182v3.3h1.8zM191.3 50.2h8.1v2.1h-5.7v2.2h5v2.1h-5v2.2h5.8v2.1h-8.2V50.2zM203.1 50.2h4.9c1.4 0 2.4.4 3.1 1.1.6.6.9 1.4.9 2.4 0 1.7-.9 2.8-2.3 3.3l2.6 3.8h-2.8l-2.3-3.4h-1.9v3.4h-2.4V50.2zm4.8 5.2c1.1 0 1.8-.6 1.8-1.5 0-1-.7-1.5-1.9-1.5h-2.3v3.1h2.4z"/><g><path class="pst0" d="M27.5 1.8v12.4H10.7V1.8H4.2v33.3h6.5V21h16.8v14.1H34V1.8h-6.5zM67.6 1.8v17.4c0 5-.5 10.4-8.8 10.4s-8.9-5.2-8.9-10.4V1.8h-6.5v17.8c0 7.9 2.2 16.4 15.3 16.4C71.8 36 74 27.4 74 19.6V1.8h-6.4zM121.8 1.8v33.3h22.5v-6.7h-15.9V1.8h-6.6zM164.1.9c-10 0-17.8 7.7-17.8 17.5s7.8 17.5 17.8 17.5 17.8-7.7 17.8-17.5S174.1.9 164.1.9zm0 28.6c-6.3 0-11.3-4.9-11.3-11.1 0-6.2 5-11.1 11.3-11.1s11.3 4.9 11.3 11.1c0 6.2-5 11.1-11.3 11.1zM184.6 1.8v6.8H195v26.5h6.5V8.6h10.2V1.8h-27.1zM108.2 17.7c2-1.6 3.2-3.9 3.2-6.6 0-2.8-1.1-9.2-11.5-9.2H82.8v33.3H101c7.3 0 11.5-3.7 11.5-10.1 0-3.2-1.5-5.7-4.3-7.4zm-8.6-9.8c3.6 0 4.7 1.3 4.7 3.5s-1 3.8-4.6 3.8H89.3V7.9h10.3zm1 21.1H89.3v-8.4h11.3c3.4 0 4.8 1.3 4.8 4.3.1 2.3-.9 4.1-4.8 4.1z"/></g></symbol><symbol id="partners-oracle" viewBox="0 0 99.1 12.89" xmlns="http://www.w3.org/2000/svg"><defs><style>.qcls-1{fill:#c74634}</style></defs><path class="qcls-1" d="M42.78 8.39h6.55L45.87 2.8l-6.35 10.09h-2.9L44.35.79A1.83 1.83 0 0145.87 0a1.81 1.81 0 011.49.77l7.75 12.12h-2.89l-1.36-2.26h-6.63l-1.45-2.24m30 2.24V.12h-2.42v11.55a1.18 1.18 0 00.37.84 1.23 1.23 0 00.89.38H82.8l1.46-2.26H72.82m-40.6-1.88a4.32 4.32 0 000-8.63H21.48v12.77h2.46V2.38h8.12a2.07 2.07 0 010 4.13h-6.92l7.33 6.39H36l-4.89-4.15h1.11M6.38 12.89h7.42a6.39 6.39 0 000-12.77H6.38a6.39 6.39 0 000 12.77m7.25-2.25H6.55a4.13 4.13 0 010-8.26h7.08a4.13 4.13 0 110 8.26m46.61 2.25h7.57l1.44-2.25h-8.84a4.13 4.13 0 110-8.26h7.19L69.05.12h-8.81a6.39 6.39 0 100 12.77m30-2.25a4.15 4.15 0 01-4-3h10.52l1.45-2.25H86.27a4.14 4.14 0 014-3h7.2L98.89.12h-8.8a6.39 6.39 0 000 12.77h7.57l1.44-2.25h-8.85"/></symbol></svg>